<?xml version="1.0" encoding="UTF-8" standalone="no"?>
<!DOCTYPE svg PUBLIC "-//W3C//DTD SVG 1.1//EN"
 "http://www.w3.org/Graphics/SVG/1.1/DTD/svg11.dtd">
<!-- Generated by graphviz version 2.40.1 (20161225.0304)
 -->
<!-- Title: Tree Pages: 1 -->
<svg width="597pt" height="361pt"
 viewBox="0.00 0.00 596.50 360.80" xmlns="http://www.w3.org/2000/svg" xmlns:xlink="http://www.w3.org/1999/xlink">
<g id="graph0" class="graph" transform="scale(1 1) rotate(0) translate(4 356.8)">
<title>Tree</title>
<polygon fill="#ffffff" stroke="transparent" points="-4,4 -4,-356.8 592.5,-356.8 592.5,4 -4,4"/>
<!-- 0 -->
<g id="node1" class="node">
<title>0</title>
<path fill="#f5ceb2" stroke="#000000" d="M354,-341C354,-341 228,-341 228,-341 222,-341 216,-335 216,-329 216,-329 216,-285 216,-285 216,-279 222,-273 228,-273 228,-273 354,-273 354,-273 360,-273 366,-279 366,-285 366,-285 366,-329 366,-329 366,-335 360,-341 354,-341"/>
<text text-anchor="start" x="256" y="-325.8" font-family="Helvetica,sans-Serif" font-size="14.00" fill="#000000">Sex ≤ 0.5</text>
<text text-anchor="start" x="251.5" y="-310.8" font-family="Helvetica,sans-Serif" font-size="14.00" fill="#000000">gini = 0.47</text>
<text text-anchor="start" x="236.5" y="-295.8" font-family="Helvetica,sans-Serif" font-size="14.00" fill="#000000">samples = 668</text>
<text text-anchor="start" x="224" y="-280.8" font-family="Helvetica,sans-Serif" font-size="14.00" fill="#000000">value = [415, 253]</text>
</g>
<!-- 1 -->
<g id="node2" class="node">
<title>1</title>
<path fill="#7ebfee" stroke="#000000" d="M270.5,-200C270.5,-200 153.5,-200 153.5,-200 147.5,-200 141.5,-194 141.5,-188 141.5,-188 141.5,-144 141.5,-144 141.5,-138 147.5,-132 153.5,-132 153.5,-132 270.5,-132 270.5,-132 276.5,-132 282.5,-138 282.5,-144 282.5,-144 282.5,-188 282.5,-188 282.5,-194 276.5,-200 270.5,-200"/>
<text text-anchor="start" x="168" y="-184.8" font-family="Helvetica,sans-Serif" font-size="14.00" fill="#000000">Pclass ≤ 2.5</text>
<text text-anchor="start" x="172.5" y="-169.8" font-family="Helvetica,sans-Serif" font-size="14.00" fill="#000000">gini = 0.38</text>
<text text-anchor="start" x="157.5" y="-154.8" font-family="Helvetica,sans-Serif" font-size="14.00" fill="#000000">samples = 229</text>
<text text-anchor="start" x="149.5" y="-139.8" font-family="Helvetica,sans-Serif" font-size="14.00" fill="#000000">value = [59, 170]</text>
</g>
<!-- 0&#45;&gt;1 -->
<g id="edge1" class="edge">
<title>0&#45;&gt;1</title>
<path fill="none" stroke="#000000" d="M271.8763,-272.8678C261.1362,-253.6988 247.6285,-229.59 236.1621,-209.1248"/>
<polygon fill="#000000" stroke="#000000" points="239.1628,-207.3198 231.2214,-200.3065 233.056,-210.7414 239.1628,-207.3198"/>
<text text-anchor="middle" x="225.7964" y="-215.8567" font-family="Helvetica,sans-Serif" font-size="14.00" fill="#000000">True</text>
</g>
<!-- 2 -->
<g id="node5" class="node">
<title>2</title>
<path fill="#eb9e67" stroke="#000000" d="M429.5,-200C429.5,-200 312.5,-200 312.5,-200 306.5,-200 300.5,-194 300.5,-188 300.5,-188 300.5,-144 300.5,-144 300.5,-138 306.5,-132 312.5,-132 312.5,-132 429.5,-132 429.5,-132 435.5,-132 441.5,-138 441.5,-144 441.5,-144 441.5,-188 441.5,-188 441.5,-194 435.5,-200 429.5,-200"/>
<text text-anchor="start" x="335" y="-184.8" font-family="Helvetica,sans-Serif" font-size="14.00" fill="#000000">Age ≤ 6.5</text>
<text text-anchor="start" x="331.5" y="-169.8" font-family="Helvetica,sans-Serif" font-size="14.00" fill="#000000">gini = 0.31</text>
<text text-anchor="start" x="316.5" y="-154.8" font-family="Helvetica,sans-Serif" font-size="14.00" fill="#000000">samples = 439</text>
<text text-anchor="start" x="308.5" y="-139.8" font-family="Helvetica,sans-Serif" font-size="14.00" fill="#000000">value = [356, 83]</text>
</g>
<!-- 0&#45;&gt;2 -->
<g id="edge4" class="edge">
<title>0&#45;&gt;2</title>
<path fill="none" stroke="#000000" d="M310.3658,-272.8678C321.2418,-253.6988 334.9205,-229.59 346.532,-209.1248"/>
<polygon fill="#000000" stroke="#000000" points="349.6446,-210.7313 351.5353,-200.3065 343.5563,-207.2769 349.6446,-210.7313"/>
<text text-anchor="middle" x="356.8567" y="-215.8856" font-family="Helvetica,sans-Serif" font-size="14.00" fill="#000000">False</text>
</g>
<!-- 3 -->
<g id="node3" class="node">
<title>3</title>
<path fill="#40a0e6" stroke="#000000" d="M120,-62.5C120,-62.5 12,-62.5 12,-62.5 6,-62.5 0,-56.5 0,-50.5 0,-50.5 0,-21.5 0,-21.5 0,-15.5 6,-9.5 12,-9.5 12,-9.5 120,-9.5 120,-9.5 126,-9.5 132,-15.5 132,-21.5 132,-21.5 132,-50.5 132,-50.5 132,-56.5 126,-62.5 120,-62.5"/>
<text text-anchor="start" x="26.5" y="-47.3" font-family="Helvetica,sans-Serif" font-size="14.00" fill="#000000">gini = 0.06</text>
<text text-anchor="start" x="11.5" y="-32.3" font-family="Helvetica,sans-Serif" font-size="14.00" fill="#000000">samples = 120</text>
<text text-anchor="start" x="8" y="-17.3" font-family="Helvetica,sans-Serif" font-size="14.00" fill="#000000">value = [4, 116]</text>
</g>
<!-- 1&#45;&gt;3 -->
<g id="edge2" class="edge">
<title>1&#45;&gt;3</title>
<path fill="none" stroke="#000000" d="M173.6402,-131.844C151.9693,-112.548 124.9964,-88.531 103.4727,-69.3661"/>
<polygon fill="#000000" stroke="#000000" points="105.6054,-66.5787 95.8094,-62.5426 100.9503,-71.8066 105.6054,-66.5787"/>
</g>
<!-- 4 -->
<g id="node4" class="node">
<title>4</title>
<path fill="#fffdfb" stroke="#000000" d="M270,-62.5C270,-62.5 162,-62.5 162,-62.5 156,-62.5 150,-56.5 150,-50.5 150,-50.5 150,-21.5 150,-21.5 150,-15.5 156,-9.5 162,-9.5 162,-9.5 270,-9.5 270,-9.5 276,-9.5 282,-15.5 282,-21.5 282,-21.5 282,-50.5 282,-50.5 282,-56.5 276,-62.5 270,-62.5"/>
<text text-anchor="start" x="181" y="-47.3" font-family="Helvetica,sans-Serif" font-size="14.00" fill="#000000">gini = 0.5</text>
<text text-anchor="start" x="161.5" y="-32.3" font-family="Helvetica,sans-Serif" font-size="14.00" fill="#000000">samples = 109</text>
<text text-anchor="start" x="158" y="-17.3" font-family="Helvetica,sans-Serif" font-size="14.00" fill="#000000">value = [55, 54]</text>
</g>
<!-- 1&#45;&gt;4 -->
<g id="edge3" class="edge">
<title>1&#45;&gt;4</title>
<path fill="none" stroke="#000000" d="M213.051,-131.844C213.6108,-113.6482 214.2999,-91.2545 214.8711,-72.6899"/>
<polygon fill="#000000" stroke="#000000" points="218.374,-72.6455 215.1833,-62.5426 211.3773,-72.4302 218.374,-72.6455"/>
</g>
<!-- 5 -->
<g id="node6" class="node">
<title>5</title>
<path fill="#88c4ef" stroke="#000000" d="M417.5,-62.5C417.5,-62.5 318.5,-62.5 318.5,-62.5 312.5,-62.5 306.5,-56.5 306.5,-50.5 306.5,-50.5 306.5,-21.5 306.5,-21.5 306.5,-15.5 312.5,-9.5 318.5,-9.5 318.5,-9.5 417.5,-9.5 417.5,-9.5 423.5,-9.5 429.5,-15.5 429.5,-21.5 429.5,-21.5 429.5,-50.5 429.5,-50.5 429.5,-56.5 423.5,-62.5 417.5,-62.5"/>
<text text-anchor="start" x="328.5" y="-47.3" font-family="Helvetica,sans-Serif" font-size="14.00" fill="#000000">gini = 0.41</text>
<text text-anchor="start" x="318" y="-32.3" font-family="Helvetica,sans-Serif" font-size="14.00" fill="#000000">samples = 21</text>
<text text-anchor="start" x="314.5" y="-17.3" font-family="Helvetica,sans-Serif" font-size="14.00" fill="#000000">value = [6, 15]</text>
</g>
<!-- 2&#45;&gt;5 -->
<g id="edge5" class="edge">
<title>2&#45;&gt;5</title>
<path fill="none" stroke="#000000" d="M370.2118,-131.844C369.7919,-113.6482 369.2751,-91.2545 368.8467,-72.6899"/>
<polygon fill="#000000" stroke="#000000" points="372.3424,-72.4592 368.6125,-62.5426 365.3443,-72.6207 372.3424,-72.4592"/>
</g>
<!-- 6 -->
<g id="node7" class="node">
<title>6</title>
<path fill="#ea995f" stroke="#000000" d="M576.5,-62.5C576.5,-62.5 459.5,-62.5 459.5,-62.5 453.5,-62.5 447.5,-56.5 447.5,-50.5 447.5,-50.5 447.5,-21.5 447.5,-21.5 447.5,-15.5 453.5,-9.5 459.5,-9.5 459.5,-9.5 576.5,-9.5 576.5,-9.5 582.5,-9.5 588.5,-15.5 588.5,-21.5 588.5,-21.5 588.5,-50.5 588.5,-50.5 588.5,-56.5 582.5,-62.5 576.5,-62.5"/>
<text text-anchor="start" x="478.5" y="-47.3" font-family="Helvetica,sans-Serif" font-size="14.00" fill="#000000">gini = 0.27</text>
<text text-anchor="start" x="463.5" y="-32.3" font-family="Helvetica,sans-Serif" font-size="14.00" fill="#000000">samples = 418</text>
<text text-anchor="start" x="455.5" y="-17.3" font-family="Helvetica,sans-Serif" font-size="14.00" fill="#000000">value = [350, 68]</text>
</g>
<!-- 2&#45;&gt;6 -->
<g id="edge6" class="edge">
<title>2&#45;&gt;6</title>
<path fill="none" stroke="#000000" d="M409.6225,-131.844C431.4418,-112.548 458.5995,-88.531 480.2706,-69.3661"/>
<polygon fill="#000000" stroke="#000000" points="482.8141,-71.7891 487.9864,-62.5426 478.1768,-66.5454 482.8141,-71.7891"/>
</g>
</g>
</svg>
